<?xml version="1.0" encoding="utf-8"?>
<!-- Generator: Adobe Illustrator 26.0.1, SVG Export Plug-In . SVG Version: 6.00 Build 0)  -->
<svg version="1.1" id="Layer_1" xmlns="http://www.w3.org/2000/svg" xmlns:xlink="http://www.w3.org/1999/xlink" x="0px" y="0px"
	 viewBox="0 0 264.3 89.6" style="enable-background:new 0 0 264.3 89.6;" xml:space="preserve">
<style type="text/css">
	.st0{fill:#262626;}
	.st1{fill:url(#SVGID_1_);}
</style>
<g id="Layer_2_00000029746166120379792770000015736757248929481098_">
	<g id="Layer_1-2">
		<path class="st0" d="M95.4,32.4c0.3,0.6,0.7,1.3,1.1,2.1s0.8,1.7,1.3,2.7s0.9,2,1.3,3l1.2,2.9l1.2-2.9c0.4-1,0.9-2,1.3-3
			c0.4-1,0.9-1.9,1.3-2.7s0.8-1.5,1.1-2.1h3.7c0.2,1.2,0.3,2.5,0.5,4s0.3,3,0.4,4.6s0.2,3.2,0.3,4.8s0.2,3.1,0.2,4.5h-3.9
			c0-1.8-0.1-3.7-0.2-5.7s-0.2-4.1-0.4-6.2l-1,2.4c-0.4,0.9-0.8,1.8-1.1,2.6s-0.7,1.7-1.1,2.5s-0.6,1.5-0.9,2.1h-2.9
			c-0.2-0.6-0.5-1.3-0.9-2.1l-1.1-2.5c-0.4-0.9-0.8-1.8-1.1-2.6l-1-2.4c-0.2,2.1-0.3,4.2-0.4,6.2c-0.1,2.1-0.2,4-0.2,5.7h-4
			c0.1-1.4,0.2-2.9,0.2-4.5s0.2-3.2,0.3-4.8s0.2-3.1,0.4-4.6s0.3-2.8,0.5-4H95.4z"/>
		<path class="st0" d="M126.5,43.5c0,1-0.1,2-0.5,2.9c-0.3,0.8-0.7,1.6-1.3,2.3c-0.6,0.6-1.3,1.1-2.1,1.5c-1.8,0.7-3.7,0.7-5.5,0
			c-0.8-0.3-1.5-0.8-2.1-1.5c-0.6-0.7-1.1-1.4-1.4-2.3c-0.3-0.9-0.5-1.9-0.5-2.9c0-1,0.2-2,0.5-2.9c0.3-0.8,0.8-1.6,1.4-2.3
			c0.6-0.6,1.3-1.1,2.1-1.5c1.7-0.7,3.7-0.7,5.4,0c0.8,0.3,1.5,0.8,2.1,1.5c0.6,0.7,1.1,1.4,1.4,2.3
			C126.3,41.5,126.5,42.5,126.5,43.5z M122.6,43.5c0.1-1-0.2-2-0.7-2.8c-0.8-1.1-2.4-1.4-3.6-0.5c-0.2,0.1-0.4,0.3-0.5,0.5
			c-0.5,0.8-0.8,1.8-0.7,2.8c0,1,0.2,2,0.7,2.8c0.8,1.1,2.4,1.4,3.5,0.6c0.2-0.2,0.4-0.4,0.6-0.6C122.4,45.5,122.6,44.5,122.6,43.5z
			"/>
		<path class="st0" d="M135.3,45.5c-0.5,0.8-1,1.6-1.5,2.5c-0.4,0.8-0.9,1.6-1.2,2.4h-3.9c0.5-1.1,1-2.2,1.5-3.1
			c0.5-0.8,1-1.6,1.5-2.4c-0.7-0.3-1.3-0.9-1.7-1.5c-0.4-0.7-0.7-1.4-0.6-2.2c-0.1-1.4,0.5-2.7,1.6-3.5c1.3-0.9,2.9-1.3,4.6-1.2
			c0.4,0,0.9,0,1.4,0s1.1,0.1,1.6,0.2s1,0.1,1.5,0.2s0.9,0.2,1.2,0.2v13.3h-3.9v-4.8H135.3z M137.3,39.5l-0.8-0.1h-0.9
			c-0.7-0.1-1.4,0.1-1.9,0.5c-0.3,0.3-0.5,0.8-0.5,1.2c0,0.3,0.1,0.6,0.2,0.8c0.1,0.2,0.3,0.4,0.6,0.5c0.2,0.1,0.5,0.2,0.8,0.3
			c0.3,0.1,0.6,0.1,0.8,0.1h1.9L137.3,39.5z"/>
		<path class="st0" d="M150.6,43.5c0-1,0.2-1.9,0.5-2.8c0.3-0.9,0.8-1.6,1.4-2.3c0.6-0.7,1.4-1.2,2.2-1.5c0.9-0.4,2-0.6,3-0.6
			c0.7,0,1.3,0.1,2,0.2c0.6,0.1,1.2,0.3,1.8,0.6l-0.8,3.1c-0.4-0.1-0.8-0.3-1.2-0.4c-0.5-0.1-1-0.2-1.4-0.2c-1-0.1-1.9,0.3-2.6,1.1
			c-0.6,0.8-0.9,1.8-0.9,2.8c-0.1,1,0.2,2,0.8,2.8c0.7,0.7,1.7,1.1,2.8,1c0.5,0,1,0,1.5-0.1c0.5-0.1,1-0.2,1.5-0.4l0.6,3.2
			c-0.5,0.2-1.1,0.4-1.7,0.5c-0.7,0.1-1.5,0.2-2.2,0.2c-1.1,0-2.2-0.2-3.2-0.6c-0.8-0.3-1.6-0.8-2.2-1.5c-0.6-0.6-1-1.4-1.3-2.3
			C150.7,45.4,150.6,44.5,150.6,43.5z"/>
		<path class="st0" d="M163.7,43.6c0-1.1,0.2-2.2,0.6-3.2c0.3-0.8,0.8-1.6,1.5-2.3c0.6-0.6,1.3-1.1,2.1-1.4c0.8-0.3,1.6-0.5,2.4-0.5
			c1.7-0.1,3.4,0.6,4.6,1.8c1.2,1.5,1.8,3.3,1.7,5.2c0,0.2,0,0.5,0,0.7s0,0.5-0.1,0.7h-8.8c0.1,0.8,0.5,1.5,1.1,1.9
			c0.8,0.5,1.7,0.8,2.6,0.7c0.7,0,1.4-0.1,2.1-0.2c0.6-0.1,1.1-0.3,1.7-0.5l0.5,3.1c-0.3,0.1-0.5,0.2-0.8,0.3
			c-0.3,0.1-0.7,0.2-1.1,0.3s-0.9,0.1-1.4,0.2c-0.5,0.1-1,0.1-1.5,0.1c-1.1,0-2.2-0.2-3.2-0.5c-0.9-0.3-1.6-0.8-2.3-1.5
			c-0.6-0.6-1.1-1.4-1.3-2.2C163.9,45.5,163.7,44.6,163.7,43.6z M172.8,42.1c0-0.3-0.1-0.7-0.2-1c-0.1-0.3-0.2-0.6-0.4-0.8
			c-0.2-0.2-0.5-0.5-0.8-0.6c-0.4-0.2-0.7-0.2-1.1-0.2c-0.4,0-0.8,0.1-1.1,0.2c-0.3,0.1-0.6,0.3-0.8,0.6c-0.2,0.2-0.4,0.5-0.5,0.8
			c-0.1,0.3-0.2,0.7-0.2,1L172.8,42.1z"/>
		<path class="st0" d="M183.5,42.5c0,0.6-0.1,1.3-0.1,2l-0.1,2.1c0,0.7-0.1,1.4-0.1,2.1s0,1.2-0.1,1.7h-3.8c0-1,0.1-2,0.2-3.2
			s0.2-2.4,0.3-3.6s0.2-2.5,0.3-3.6s0.2-2.2,0.3-3.2h3.2c0.8,1.2,1.4,2.5,2.1,3.8c0.6,1.3,1.3,2.7,2,4.3c0.7-1.7,1.4-3.2,2.1-4.6
			c0.6-1.2,1.2-2.3,1.9-3.4h3.3c0.1,0.9,0.2,2,0.4,3.2s0.2,2.4,0.3,3.6s0.2,2.5,0.2,3.6s0.1,2.3,0.1,3.2h-3.8c0-1.3-0.1-2.7-0.1-4
			s-0.1-2.6-0.2-3.9l-2.9,6.2h-2.7L183.5,42.5z"/>
		<path class="st0" d="M203.4,41.5c0.3-0.1,0.6-0.1,0.9-0.2c0.4-0.1,0.9-0.1,1.3-0.1c0.8,0,1.5,0.1,2.3,0.3c0.7,0.2,1.3,0.5,1.8,0.9
			c0.5,0.4,1,0.9,1.2,1.5c0.3,0.7,0.5,1.4,0.4,2.1c0,0.7-0.1,1.4-0.4,2.1c-0.3,0.6-0.7,1.1-1.2,1.4c-0.6,0.4-1.2,0.7-1.9,0.8
			c-0.8,0.2-1.6,0.3-2.4,0.3c-1,0-2.1,0-3.1-0.2c-1-0.1-2-0.3-2.9-0.5V36.7h3.9L203.4,41.5z M205.3,47.6c0.6,0,1.2-0.1,1.7-0.4
			c0.4-0.3,0.6-0.8,0.6-1.3c0-0.3-0.1-0.6-0.2-0.8c-0.1-0.2-0.3-0.4-0.6-0.5c-0.3-0.1-0.5-0.2-0.8-0.3c-0.3-0.1-0.7-0.1-1-0.1
			c-0.3,0-0.5,0-0.9,0l-0.7,0.1v3.1c0.2,0,0.5,0.1,0.8,0.1L205.3,47.6z"/>
		<path class="st0" d="M219.9,45.5c-0.5,0.8-1,1.6-1.5,2.5c-0.4,0.8-0.9,1.6-1.2,2.4h-4c0.5-1.1,1-2.2,1.5-3.1
			c0.5-0.8,1-1.6,1.5-2.4c-0.7-0.3-1.3-0.8-1.7-1.5c-0.5-0.7-0.7-1.4-0.6-2.2c-0.1-1.4,0.5-2.7,1.6-3.5c1.3-0.9,2.9-1.3,4.6-1.2
			c0.4,0,0.9,0,1.4,0s1.1,0.1,1.6,0.2s1,0.1,1.5,0.2s0.9,0.2,1.2,0.2v13.3h-3.9v-4.8H219.9z M221.9,39.5l-0.8-0.1h-0.9
			c-0.7-0.1-1.4,0.1-2,0.5c-0.3,0.3-0.5,0.8-0.5,1.2c0,0.3,0.1,0.6,0.2,0.8c0.1,0.2,0.3,0.4,0.5,0.5c0.2,0.1,0.5,0.2,0.8,0.3
			c0.3,0.1,0.6,0.1,0.8,0.1h1.9L221.9,39.5z"/>
		<path class="st0" d="M237.7,41h25.9v3.2h-25.9V41z"/>
		<path class="st0" d="M94.2,67.5c0,0.6-0.1,1.3-0.1,2S94,70.9,94,71.6s0,1.4-0.1,2.1s0,1.2-0.1,1.7h-3.8c0-1,0.1-2,0.2-3.2
			s0.2-2.4,0.3-3.6s0.2-2.4,0.3-3.6s0.2-2.2,0.3-3.2h3.2c0.8,1.2,1.4,2.5,2.1,3.8c0.6,1.3,1.3,2.7,2,4.3c0.7-1.7,1.4-3.2,2.1-4.6
			c0.6-1.2,1.2-2.3,1.9-3.4h3.3c0.1,0.9,0.2,2,0.3,3.2c0.1,1.2,0.2,2.4,0.3,3.6s0.2,2.4,0.2,3.6s0.1,2.3,0.2,3.2h-3.9
			c0-1.3-0.1-2.7-0.2-4s-0.1-2.6-0.2-3.9l-2.9,6.3H97L94.2,67.5z"/>
		<path class="st0" d="M123,68.5c0,1-0.1,2-0.5,2.9c-0.3,0.9-0.7,1.6-1.3,2.3c-0.6,0.6-1.4,1.1-2.2,1.5c-1.8,0.7-3.7,0.7-5.5,0
			c-0.8-0.3-1.5-0.8-2.1-1.5c-0.6-0.7-1.1-1.4-1.4-2.3c-0.3-0.9-0.5-1.9-0.5-2.9c0-1,0.2-2,0.5-2.9c0.3-0.8,0.8-1.6,1.4-2.3
			c0.6-0.6,1.3-1.1,2.1-1.5c0.8-0.4,1.8-0.5,2.7-0.5c0.9,0,1.9,0.2,2.7,0.5c0.8,0.3,1.5,0.8,2.1,1.5c0.6,0.7,1.1,1.4,1.4,2.3
			C122.8,66.5,123,67.5,123,68.5z M119.1,68.5c0.1-1-0.2-2-0.7-2.8c-0.5-0.7-1.2-1-2-1c-0.8,0-1.5,0.4-2,1c-0.5,0.8-0.8,1.8-0.7,2.8
			c0,1,0.2,2,0.7,2.8c0.5,0.6,1.2,1,2,1c0.8,0,1.5-0.3,2-1C118.8,70.5,119.1,69.5,119.1,68.5L119.1,68.5z"/>
		<path class="st0" d="M131.7,70.5c-0.5,0.8-1,1.6-1.5,2.4c-0.4,0.8-0.9,1.6-1.2,2.4h-4c0.5-1.1,1-2.2,1.5-3.1
			c0.5-0.8,1-1.6,1.5-2.4c-0.7-0.3-1.3-0.9-1.7-1.5c-0.5-0.7-0.7-1.4-0.7-2.2c-0.1-1.4,0.5-2.7,1.6-3.5c1.3-0.9,2.9-1.3,4.6-1.2
			c0.4,0,0.9,0,1.4,0s1,0.1,1.6,0.2s1,0.1,1.5,0.2s0.9,0.2,1.2,0.2v13.3h-3.9v-4.8H131.7z M133.7,64.5l-0.8-0.1H132
			c-0.7-0.1-1.4,0.1-1.9,0.5c-0.3,0.3-0.5,0.8-0.5,1.2c0,0.5,0.3,1.1,0.8,1.3c0.2,0.1,0.5,0.2,0.8,0.3c0.3,0.1,0.6,0.1,0.8,0.1h1.9
			L133.7,64.5z"/>
		<path class="st0" d="M151.6,66.4c0.4-0.4,0.8-0.8,1.2-1.2s0.8-0.8,1.2-1.3s0.8-0.8,1.1-1.2s0.7-0.8,1-1.1h4.7l-1.3,1.4l-1.6,1.7
			c-0.6,0.6-1.1,1.2-1.7,1.7s-1.1,1.1-1.6,1.5c0.6,0.5,1.1,1,1.6,1.5c0.6,0.6,1.2,1.2,1.7,1.9s1.1,1.4,1.6,2c0.5,0.6,0.9,1.3,1.3,2
			h-4.4c-0.3-0.5-0.7-1-1.1-1.5s-0.8-1-1.2-1.5s-0.9-1-1.3-1.4c-0.4-0.4-0.8-0.8-1.2-1.1v5.5h-3.9V61.7h3.9L151.6,66.4z"/>
		<path class="st0" d="M175.7,68.5c0,1-0.1,1.9-0.4,2.9c-0.2,0.8-0.6,1.6-1.1,2.2c-0.5,0.6-1.1,1.1-1.9,1.4
			c-0.8,0.4-1.7,0.5-2.6,0.5c-0.5,0-1,0-1.5-0.2c-0.5-0.1-0.9-0.2-1.4-0.4v5.1h-3.9v-18c0.3-0.1,0.7-0.2,1.2-0.3
			c0.4-0.1,0.9-0.2,1.4-0.2s1-0.1,1.5-0.2s1-0.1,1.5-0.1c1,0,2,0.2,3,0.5c0.8,0.3,1.6,0.8,2.2,1.4c0.6,0.6,1.1,1.4,1.4,2.2
			C175.6,66.5,175.8,67.5,175.7,68.5z M171.7,68.6c0.1-1-0.2-2-0.8-2.9c-0.6-0.7-1.5-1.1-2.4-1.1c-0.3,0-0.7,0-1,0
			c-0.2,0-0.5,0-0.7,0.1v7c0.3,0.2,0.6,0.3,0.9,0.4c0.4,0.1,0.8,0.2,1.2,0.2C170.9,72.3,171.8,71.1,171.7,68.6L171.7,68.6z"/>
		<path class="st0" d="M178.2,68.6c0-1.1,0.2-2.2,0.6-3.2c0.3-0.8,0.8-1.6,1.5-2.3c0.6-0.6,1.3-1.1,2.1-1.4c0.8-0.3,1.6-0.5,2.4-0.5
			c1.7-0.1,3.4,0.6,4.6,1.8c1.2,1.5,1.8,3.3,1.7,5.2c0,0.2,0,0.5,0,0.7s0,0.5-0.1,0.7h-8.8c0.1,0.8,0.5,1.5,1.1,1.9
			c0.8,0.5,1.7,0.7,2.6,0.7c0.7,0,1.4-0.1,2.1-0.2c0.6-0.1,1.1-0.3,1.7-0.5l0.5,3.1c-0.3,0.1-0.5,0.2-0.8,0.3
			c-0.3,0.1-0.7,0.2-1.1,0.3s-0.9,0.1-1.4,0.2c-0.5,0.1-1,0.1-1.5,0.1c-1.1,0-2.2-0.2-3.2-0.5c-0.8-0.3-1.6-0.8-2.2-1.5
			c-0.6-0.6-1-1.4-1.3-2.2C178.4,70.5,178.2,69.6,178.2,68.6z M187.3,67.1c0-0.3-0.1-0.7-0.2-1c-0.1-0.3-0.2-0.6-0.4-0.8
			c-0.2-0.2-0.5-0.5-0.8-0.6c-0.4-0.2-0.7-0.2-1.1-0.2c-0.4,0-0.8,0.1-1.1,0.2c-0.3,0.1-0.6,0.3-0.8,0.6c-0.2,0.2-0.4,0.5-0.5,0.8
			c-0.1,0.3-0.2,0.7-0.2,1L187.3,67.1z"/>
		<path class="st0" d="M205.9,61.7v13.6H202V64.9h-4v10.4h-3.9V61.7H205.9z"/>
		<path class="st0" d="M222.4,68.5c0,1-0.1,2-0.5,2.9c-0.3,0.9-0.7,1.6-1.4,2.3c-0.6,0.6-1.3,1.1-2.1,1.5c-0.9,0.4-1.8,0.5-2.8,0.5
			c-0.9,0-1.9-0.2-2.7-0.5c-0.8-0.3-1.5-0.8-2.1-1.5c-0.6-0.7-1.1-1.4-1.4-2.3c-0.3-0.9-0.5-1.9-0.5-2.9c0-1,0.2-2,0.5-2.9
			c0.3-0.8,0.8-1.6,1.4-2.3c0.6-0.6,1.3-1.1,2.1-1.5c0.8-0.4,1.8-0.5,2.7-0.5c0.9,0,1.9,0.2,2.7,0.5c0.8,0.3,1.5,0.8,2.1,1.5
			c0.6,0.7,1.1,1.4,1.4,2.3C222.2,66.5,222.4,67.5,222.4,68.5z M218.5,68.5c0.1-1-0.2-2-0.7-2.8c-0.5-0.7-1.2-1-2-1
			c-0.8,0-1.6,0.3-2.1,1c-0.5,0.8-0.8,1.8-0.7,2.8c0,1,0.2,2,0.7,2.8c0.5,0.7,1.2,1,2.1,1c0.8,0,1.5-0.3,2-1
			C218.3,70.5,218.5,69.5,218.5,68.5z"/>
		<path class="st0" d="M224.9,68.5c0-1,0.2-1.9,0.5-2.8c0.3-0.9,0.8-1.6,1.4-2.3c0.6-0.7,1.4-1.2,2.2-1.5c0.9-0.4,2-0.6,3-0.6
			c0.7,0,1.3,0.1,2,0.2c0.6,0.1,1.2,0.3,1.8,0.6l-0.8,3.1c-0.4-0.1-0.8-0.3-1.2-0.4c-0.5-0.1-1-0.2-1.4-0.2c-1-0.1-1.9,0.3-2.6,1.1
			c-0.6,0.8-0.9,1.8-0.9,2.8c-0.1,1,0.2,2,0.8,2.8c0.7,0.7,1.7,1.1,2.8,1c0.5,0,1,0,1.5-0.1c0.5-0.1,1-0.2,1.5-0.4l0.5,3.2
			c-0.5,0.2-1.1,0.4-1.7,0.5c-0.7,0.1-1.5,0.2-2.2,0.2c-1.1,0-2.2-0.2-3.2-0.6c-0.8-0.3-1.6-0.8-2.2-1.5c-0.6-0.7-1-1.4-1.3-2.3
			C225,70.4,224.9,69.5,224.9,68.5z"/>
		<path class="st0" d="M249.9,64.9h-4.4v10.5h-3.9V64.9h-4.4v-3.2h12.6V64.9z"/>
		<path class="st0" d="M256.2,66.5c0.3-0.1,0.6-0.1,1-0.2c0.4-0.1,0.9-0.1,1.3-0.1c0.8,0,1.5,0.1,2.3,0.3c0.7,0.2,1.3,0.5,1.8,0.9
			c0.5,0.4,0.9,0.9,1.2,1.5c0.6,1.3,0.6,2.8,0,4.2c-0.3,0.6-0.7,1.1-1.2,1.4c-0.6,0.4-1.2,0.7-1.9,0.8c-0.8,0.2-1.6,0.3-2.4,0.3
			c-1,0-2.1,0-3.1-0.2c-1-0.1-1.9-0.3-2.9-0.5V61.7h3.9L256.2,66.5z M258.2,72.6c0.6,0,1.2-0.1,1.7-0.4c0.4-0.3,0.6-0.8,0.6-1.3
			c0-0.3-0.1-0.6-0.2-0.8c-0.1-0.2-0.3-0.4-0.6-0.5c-0.3-0.1-0.6-0.2-0.9-0.3c-0.3-0.1-0.7-0.1-1-0.1c-0.3,0-0.5,0-0.9,0l-0.7,0.1
			v3.1c0.2,0,0.5,0.1,0.8,0.1L258.2,72.6z"/>
		<path class="st0" d="M89.9,13.9h1v3.4h1.4l1-2.1c0.6-1.2,1.1-1.5,1.8-1.5c0.2,0,0.3,0,0.5,0.1l-0.2,1c-0.1,0-0.2,0-0.3,0
			c-0.3,0-0.6,0.1-1,1l-1,1.9l2.8,4.3h-1.1l-2.4-3.9h-1.4v3.9h-1L89.9,13.9z"/>
		<path class="st0" d="M96.7,22.1l0.2-0.9c0.1,0,0.2,0,0.3,0c0.4,0,0.7-0.4,0.8-1.2c0.2-1.3,0.3-2.6,0.5-3.9h3.7v6h-1v-5.2h-1.9
			c-0.1,1.1-0.3,2.2-0.4,3.3c-0.2,1.3-0.7,2-1.6,2C97.1,22.2,96.9,22.1,96.7,22.1z"/>
		<path class="st0" d="M104.2,16h1v2.5c0,0.6,0,1.4-0.1,2.2l0,0c0.2-0.4,0.5-1,0.8-1.4l2.2-3.4h1.1v6h-1v-2.5c0-0.6,0-1.4,0.1-2.3
			h-0.1c-0.2,0.5-0.6,1-0.8,1.4l-2.2,3.4h-1.1L104.2,16z"/>
		<path class="st0" d="M111.2,16h1v2.4h2.9V16h1v6h-1v-2.6h-2.9v2.7h-1V16z"/>
		<path class="st0" d="M118.2,16h1v2.5c0,0.6-0.1,1.4-0.1,2.2l0,0c0.2-0.4,0.6-1,0.8-1.4L122,16h1.1v6h-1v-2.5c0-0.6,0-1.4,0.1-2.3
			l0,0c-0.2,0.5-0.5,1-0.8,1.4l-2.1,3.4h-1.1L118.2,16z"/>
		<path class="st0" d="M125.2,16h1v2.5h1.3l0.6-1.3c0.5-1.1,0.9-1.3,1.6-1.3c0.1,0,0.3,0.1,0.4,0.1l-0.2,1c-0.1,0-0.1,0-0.2,0
			c-0.3,0-0.6,0.1-0.9,0.8l-0.5,1.2l1.9,3.2h-1.1l-1.6-2.7h-1.3v2.7h-1L125.2,16z"/>
		<path class="st0" d="M130.9,20.5c0-1.3,1.1-2,3.7-2.3c0-0.8-0.3-1.5-1.2-1.5c-0.6,0-1.3,0.2-1.8,0.6l-0.4-0.7
			c0.7-0.5,1.5-0.8,2.4-0.8c1.5,0,2.1,1,2.1,2.5v3.7h-0.8l-0.1-0.7l0,0c-0.5,0.5-1.3,0.8-2,0.9c-0.9,0.1-1.7-0.6-1.8-1.5
			C130.9,20.7,130.9,20.6,130.9,20.5z M134.6,20.6V19c-2,0.2-2.7,0.7-2.7,1.5s0.5,0.9,1,0.9C133.6,21.4,134.2,21.1,134.6,20.6z"/>
		
			<linearGradient id="SVGID_1_" gradientUnits="userSpaceOnUse" x1="65.8989" y1="17.231" x2="5.9425" y2="77.1775" gradientTransform="matrix(1 0 0 -1 0 92)">
			<stop  offset="7.745578e-08" style="stop-color:#737FE6"/>
			<stop  offset="1" style="stop-color:#DD7C7C"/>
		</linearGradient>
		<path class="st1" d="M35.9,43.8V28.4c3.7,0,6.8,3,6.8,6.8V42C40.3,42.1,38,42.8,35.9,43.8z M38.5,54c2.5-2.5,4-5.8,4.2-9.3
			c-2.4,0.1-4.7,0.9-6.8,2.2V56C36.8,55.4,37.7,54.8,38.5,54z M42.7,67.7V62c0-2.1,1.7-3.8,3.8-3.8h5.7c3.8,0,6.8-3,6.8-6.8
			c0-3.8-3-6.8-6.8-6.8h-6.9c-0.2,4.2-2,8.2-5,11.2c-1.3,1.3-2.8,2.3-4.4,3.2v15.4C39.7,74.4,42.7,71.4,42.7,67.7L42.7,67.7z
			 M19.7,44.7h5.7c2.1,0,3.8-1.7,3.8-3.8l0,0v-5.7c0-3.7,3-6.8,6.8-6.8v-2.6c-5.2,0-9.4,4.2-9.4,9.4v5.6c0,0.6-0.5,1.2-1.2,1.2
			c0,0,0,0,0,0h-5.7c-5.2,0.2-9.3,4.5-9.1,9.7c0.2,5,4.1,8.9,9.1,9.1h6.8v6.8c0,5.2,4.2,9.4,9.4,9.4v-2.6c-3.7,0-6.8-3-6.8-6.8v-6.8
			c2.4-0.1,4.7-0.8,6.8-1.8v-3c-2,1.3-4.4,2-6.8,2.2c0.3-4.7,2.8-8.9,6.8-11.4v-3c-1.6,0.8-3.1,1.9-4.4,3.2c-3,3-4.8,7-5,11.2h-6.8
			c-3.8,0-6.8-3-6.8-6.8C12.9,47.7,15.9,44.6,19.7,44.7L19.7,44.7z M71.8,21.9v43.5c0,2.9-1.6,5.6-4.1,7.1L40,88.5
			c-2.5,1.5-5.7,1.5-8.2,0l-27.7-16C1.6,71.1,0,68.3,0,65.4V21.9c0-1,0.5-1.9,1.4-2.4l4.8-2.8c1.3-0.8,3-0.3,3.8,1
			c0.2,0.4,0.4,0.9,0.4,1.4v9.3l3.3-1.9V14.1c0-1,0.5-1.9,1.4-2.4l5.6-3.3c1.3-0.8,3-0.3,3.8,1c0.2,0.4,0.4,0.9,0.4,1.4v9.3l3.5-2
			V5.5c0-1,0.5-1.9,1.4-2.4l4.8-2.8c0.9-0.5,1.9-0.5,2.8,0l4.8,2.8c0.9,0.5,1.4,1.4,1.4,2.4V18l3.5,2v-9.3C47,9.2,48.2,8,49.8,8
			c0.5,0,1,0.1,1.4,0.4l5.6,3.3c0.9,0.5,1.4,1.4,1.4,2.4v12.5l3.3,1.9v-9.3c0-1.5,1.3-2.8,2.8-2.8c0.5,0,1,0.1,1.4,0.4l4.9,2.8
			C71.3,20,71.8,20.9,71.8,21.9z M35.9,87V77c5.2,0,9.4-4.2,9.4-9.4V62c0-0.6,0.5-1.2,1.2-1.2h5.7c5.2,0,9.4-4.2,9.4-9.4
			S57.4,42,52.2,42l0,0h-6.8v-6.8c0-5.2-4.2-9.4-9.4-9.4V2.6h-0.1L31,5.4c-0.1,0-0.1,0.1-0.1,0.1v12.9c0,0.7-0.4,1.3-1,1.6L25.1,23
			c-0.9,0.5-2.1,0.2-2.6-0.7c-0.2-0.3-0.3-0.6-0.3-0.9V10.8c0-0.1,0-0.1-0.1-0.1c-0.1,0-0.1,0-0.2,0l-5.6,3.3c0,0-0.1,0.1-0.1,0.1
			V27c0,0.7-0.4,1.3-1,1.7l-4.7,2.6c-0.9,0.5-2.1,0.2-2.6-0.8c-0.2-0.3-0.2-0.6-0.2-0.9V19.1c0,0,0-0.1-0.1-0.1H7.6c0,0-0.1,0-0.1,0
			l-4.8,2.8c-0.1,0-0.1,0.1-0.1,0.1v43.5c0,2,1.1,3.8,2.8,4.8l27.7,16C34,86.8,34.9,87,35.9,87z"/>
	</g>
</g>
</svg>
