<svg class="svg-icon" style="width: 1em; height: 1em;vertical-align: middle;fill: currentColor;overflow: hidden;" viewBox="0 0 1024 1024" version="1.1" xmlns="http://www.w3.org/2000/svg"><path d="M512 85.333333a426.666667 426.666667 0 0 1 426.666667 426.666667 426.666667 426.666667 0 0 1-426.666667 426.666667A426.666667 426.666667 0 0 1 85.333333 512 426.666667 426.666667 0 0 1 512 85.333333m223.573333 513.28c-50.346667-46.506667-43.52-39.253333 17.066667-119.893333 36.693333-49.066667 51.626667-78.933333 46.933333-91.733333-4.693333-11.946667-31.573333-8.96-31.573333-8.96l-90.026667 0.853333s-6.826667-1.28-11.52 1.706667c-5.12 3.413333-8.106667 9.813333-8.106666 9.813333s-14.506667 37.973333-33.28 70.4c-40.106667 67.84-56.32 71.253333-62.72 67.413333-14.933333-9.813333-11.52-39.68-11.52-61.013333 0-65.706667 10.24-93.44-19.2-100.266667-9.813333-2.56-17.066667-4.266667-42.24-4.266666-32 0-59.306667 0-74.666667 7.68-9.386667 5.12-18.346667 16.213333-13.226667 16.64 5.973333 0.853333 19.2 3.84 26.453334 13.653333 9.386667 12.373333 8.96 40.533333 8.96 40.533333s5.12 77.653333-12.373334 87.466667c-12.373333 6.4-29.013333-7.253333-64.426666-68.693333-18.773333-31.573333-32.426667-66.56-32.426667-66.56L320 384l-13.226667-6.4H221.013333s-12.8 0-17.493333 6.4c-4.266667 4.266667-0.426667 13.653333-0.426667 13.653333s66.986667 155.306667 142.933334 233.813334c69.546667 72.533333 148.48 64.426667 148.48 64.426666h35.84s10.666667 2.133333 16.213333-3.413333c5.12-5.546667 5.12-12.373333 5.12-12.373333s-0.853333-48.213333 21.333333-55.04c22.186667-6.4 50.346667 46.08 80.213334 66.986666 22.613333 15.36 39.68 11.946667 39.68 11.946667l80.213333-1.28s41.813333-2.56 21.76-35.413333c-1.28-2.56-11.52-24.32-59.306667-68.693334z" fill="#262626" /></svg>